<svg width="36" height="36" viewBox="0 0 36 36" fill="none" xmlns="http://www.w3.org/2000/svg">
<path fill-rule="evenodd" clip-rule="evenodd" d="M22.9935 18.4118C22.9935 18.4118 25.0581 15.5321 25.2633 14.5858C25.3316 14.2478 25.1812 14.0584 24.8257 14.0584H23.0345C22.6243 14.0584 22.4739 14.2342 22.3509 14.4911C22.3509 14.4911 21.3824 16.5313 20.2042 17.817C19.8258 18.2327 19.6335 18.3577 19.4247 18.3577C19.2564 18.3577 19.1786 18.2189 19.1786 17.844V14.5587C19.1786 14.0991 19.124 13.9639 18.7411 13.9639H15.8697C15.6509 13.9639 15.5142 14.0896 15.5142 14.2613C15.5142 14.6942 16.1842 14.7919 16.1842 15.9648V18.3847C16.1842 18.8715 16.1568 19.0607 15.9244 19.0607C15.3091 19.0607 13.8461 16.9652 13.0257 14.5858C12.8616 14.0991 12.6838 13.9639 12.219 13.9639H10.4278C10.168 13.9639 9.97656 14.1396 9.97656 14.3965C9.97656 14.8696 10.5371 17.0598 12.7386 19.9936C14.2153 21.9674 16.1568 23.0355 17.907 23.0355C18.9735 23.0355 19.2333 22.8598 19.2333 22.4136V20.8994C19.2333 20.5208 19.3838 20.3586 19.6025 20.3586C19.8486 20.3586 20.283 20.4368 21.298 21.4266C22.5012 22.5623 22.5833 23.0355 23.2397 23.0355H25.2496C25.4547 23.0355 25.6461 22.9409 25.6461 22.6028C25.6461 22.1566 25.0581 21.3591 24.1557 20.4127C23.7865 19.926 23.1849 19.3987 22.9935 19.1554C22.72 18.8715 22.8021 18.7092 22.9935 18.4118Z" fill="white"/>
<circle cx="17.6901" cy="18.0466" r="17.1698" stroke="#EAC141" stroke-width="1.04059"/>
</svg>
