<svg width="36" height="36" viewBox="0 0 36 36" fill="none" xmlns="http://www.w3.org/2000/svg">
<path fill-rule="evenodd" clip-rule="evenodd" d="M18.2151 9.42871C15.7282 9.42871 13.7123 11.4286 13.7123 13.8954C13.7123 16.3623 15.7282 18.3623 18.2151 18.3623C20.702 18.3623 22.7179 16.3623 22.7179 13.8954C22.7179 11.4286 20.702 9.42871 18.2151 9.42871ZM18.2143 15.7405C17.1863 15.7405 16.3529 14.9138 16.3529 13.8942C16.3529 12.8745 17.1863 12.0479 18.2143 12.0479C19.2423 12.0479 20.0756 12.8745 20.0756 13.8942C20.0756 14.9138 19.2423 15.7405 18.2143 15.7405ZM22.744 20.661C22.6868 20.7064 21.6066 21.5532 19.8039 21.9175L22.5249 24.5925C23.0035 25.0664 23.004 25.8353 22.5263 26.3099C22.0486 26.7845 21.2735 26.7853 20.7948 26.3113L18.1531 23.7596L15.7538 26.2949C15.5136 26.542 15.1931 26.6663 14.8723 26.6663C14.5664 26.6663 14.2602 26.5534 14.0226 26.3262C13.5358 25.8606 13.5217 25.0918 13.9911 24.609L16.5738 21.9316C14.7206 21.5759 13.5958 20.7071 13.5379 20.661C13.0104 20.2414 12.9257 19.477 13.3487 18.9537C13.7717 18.4305 14.5422 18.3465 15.0698 18.766C15.0809 18.775 16.2574 19.6517 18.1531 19.6529C20.0488 19.6517 21.2009 18.775 21.2121 18.766C21.7397 18.3465 22.5102 18.4305 22.9332 18.9537C23.3562 19.477 23.2715 20.2414 22.744 20.661Z" fill="white"/>
<circle cx="18.0704" cy="18.0466" r="17.1698" stroke="#EAC141" stroke-width="1.04059"/>
</svg>
