<svg width="37" height="36" viewBox="0 0 37 36" fill="none" xmlns="http://www.w3.org/2000/svg">
<path fill-rule="evenodd" clip-rule="evenodd" d="M14.7233 21.909C15.0595 22.0866 15.4338 22.1794 15.8139 22.1792C17.0798 22.1792 18.1132 21.1708 18.1599 19.914L18.1645 8.69043H20.9607C20.961 8.92881 20.9831 9.16667 21.0268 9.401H18.9794V9.40139H21.0268H21.776C21.7756 10.3407 22.1156 11.2483 22.7329 11.9556C22.7331 11.9559 22.7334 11.9562 22.7336 11.9565C23.3633 12.3684 24.0993 12.5874 24.8514 12.5867V13.2104C25.1146 13.2668 25.3868 13.2969 25.6667 13.2969V16.0979C24.2706 16.0995 22.9095 15.6612 21.776 14.845V20.5362C21.776 23.3781 19.467 25.6904 16.6288 25.6904C15.922 25.6906 15.2228 25.5446 14.575 25.2615C13.9277 24.9786 13.3456 24.565 12.8652 24.0465C12.8648 24.0463 12.8645 24.046 12.8641 24.0458C11.5368 23.1125 10.6667 21.5691 10.6667 19.8256C10.6667 16.9833 12.9757 14.6705 15.8139 14.6705C16.046 14.6716 16.2777 14.6885 16.5075 14.7211V15.3842C16.5075 15.3842 16.5075 15.3842 16.5075 15.3842L16.5075 17.5802C16.5075 17.5802 16.5075 17.5802 16.5075 17.5802L16.5075 15.3842C16.5237 15.3839 16.5397 15.3833 16.5558 15.3828C16.5801 15.3819 16.6043 15.3811 16.6288 15.3811C16.8609 15.3822 17.0926 15.3991 17.3224 15.4317V18.2907C17.1031 18.2218 16.871 18.1817 16.6288 18.1817C16.0055 18.1824 15.408 18.4307 14.9673 18.8721C14.5266 19.3135 14.2788 19.912 14.2782 20.5361C14.2782 21.0292 14.4338 21.5095 14.7227 21.9087C14.7229 21.9088 14.7231 21.9089 14.7233 21.909ZM17.7247 22.6178C18.4445 22.2354 18.9428 21.4885 18.9752 20.6241V20.6245C18.9428 21.4886 18.4445 22.2354 17.7247 22.6178ZM15.8141 17.4712C15.958 17.4712 16.0985 17.4852 16.2349 17.5112C16.0964 17.4851 15.9555 17.4716 15.8141 17.4712ZM14.1525 18.1614C14.1525 18.1614 14.1525 18.1614 14.1525 18.1614V18.1614ZM11.8211 22.3753C12.06 22.9986 12.4165 23.564 12.863 24.0446C12.4074 23.5563 12.0556 22.9885 11.8211 22.3753ZM15.8139 24.9799C15.8139 24.9799 15.8139 24.9799 15.8139 24.9799V24.9799ZM20.9607 19.8252V14.134C20.9607 14.134 20.9607 14.134 20.9607 14.134V19.8252Z" fill="white"/>
<circle cx="18.4505" cy="18.0466" r="17.1698" stroke="#EAC141" stroke-width="1.04059"/>
</svg>
