<svg width="23" height="23" viewBox="0 0 23 23" fill="none" xmlns="http://www.w3.org/2000/svg">
<path fill-rule="evenodd" clip-rule="evenodd" d="M16.4386 11.6295C16.4386 12.5255 16.4386 13.1298 16.4178 13.4632C16.3764 14.2759 16.1486 14.901 15.693 15.3386C15.2373 15.7762 14.6367 16.0263 13.829 16.068C13.4976 16.0888 12.8763 16.0888 12.0064 16.0888C11.1158 16.0888 10.5152 16.0888 10.1838 16.068C9.37608 16.0263 8.75475 15.7971 8.31982 15.3386C7.88488 14.901 7.63635 14.2759 7.59493 13.4632C7.57422 13.1298 7.57422 12.5047 7.57422 11.6295C7.57422 10.7543 7.57422 10.1292 7.59493 9.79575C7.63635 8.98307 7.86417 8.35793 8.31982 7.92033C8.75475 7.48274 9.37608 7.23268 10.1838 7.191C10.5152 7.17017 11.1365 7.17017 12.0064 7.17017C12.897 7.17017 13.4976 7.17017 13.829 7.191C14.6367 7.23268 15.258 7.4619 15.693 7.92033C16.1279 8.37877 16.3764 8.98307 16.4178 9.79575C16.4178 9.92207 16.4208 10.0873 16.4245 10.2925C16.4306 10.6289 16.4386 11.0729 16.4386 11.6295ZM12.4394 7.96216H12.0045H11.5696H10.969C10.824 7.96216 10.6376 7.96216 10.4098 7.983C10.1819 7.983 9.97483 8.00383 9.80915 8.04551C9.64346 8.06635 9.49848 8.10802 9.39493 8.1497C9.20853 8.23305 9.04284 8.33724 8.87715 8.4831C8.73217 8.62897 8.62862 8.79567 8.54577 9.00405C8.50435 9.10824 8.46293 9.25411 8.44222 9.42081C8.42151 9.58751 8.4008 9.77505 8.38009 10.0251C8.38009 10.1526 8.37368 10.2672 8.36799 10.3689L8.36799 10.3689C8.36345 10.4501 8.35938 10.523 8.35938 10.5877V11.192V11.6296V12.0672V12.6715C8.35938 12.8174 8.35938 13.0049 8.38009 13.2341C8.38009 13.4634 8.4008 13.6717 8.44222 13.8384C8.45689 13.8975 8.46897 13.9539 8.48028 14.0068C8.50091 14.1033 8.51903 14.1879 8.54577 14.2552C8.62862 14.4427 8.73217 14.6094 8.87715 14.7761C9.02213 14.922 9.18782 15.0262 9.39493 15.1095C9.49848 15.1512 9.64346 15.1929 9.80915 15.2137C9.97483 15.2346 10.1612 15.2554 10.4098 15.2763C10.6583 15.2971 10.824 15.2971 10.969 15.2971H11.5696H12.0045H12.4394H13.0401C13.185 15.2971 13.3714 15.2971 13.5993 15.2763C13.8271 15.2763 14.0342 15.2554 14.1999 15.2137C14.3656 15.1929 14.5105 15.1512 14.6141 15.1095C14.8005 15.0262 14.9662 14.922 15.1319 14.7761C15.2769 14.6303 15.3804 14.4636 15.4633 14.2552C15.5047 14.151 15.5461 14.0051 15.5668 13.8384C15.5875 13.6717 15.6082 13.4842 15.6289 13.2341C15.6289 13.1066 15.6353 12.992 15.641 12.8903C15.6456 12.8092 15.6497 12.7362 15.6497 12.6715V12.0672V11.6296V11.192V10.5877C15.6497 10.4419 15.6497 10.2543 15.6289 10.0251C15.6289 9.79589 15.6082 9.58751 15.5668 9.42081C15.5461 9.25411 15.5047 9.10824 15.4633 9.00405C15.3804 8.81651 15.2769 8.64981 15.1319 8.4831C14.9869 8.33724 14.8212 8.23305 14.6141 8.1497C14.5105 8.10802 14.3656 8.06635 14.1999 8.04551C14.0342 8.02467 13.8478 8.00383 13.5993 7.983C13.4725 7.983 13.3586 7.97655 13.2575 7.97083C13.1769 7.96626 13.1044 7.96216 13.0401 7.96216H12.4394ZM14.2634 11.6296C14.2634 10.9836 14.0356 10.4418 13.6007 10.0042C13.1658 9.54578 12.6273 9.3374 11.9852 9.3374C11.3432 9.3374 10.8047 9.56662 10.3698 10.0042C9.93485 10.4626 9.70703 10.9836 9.70703 11.6296C9.70703 12.2755 9.93485 12.8173 10.3698 13.2549C10.8254 13.6925 11.3432 13.9217 11.9852 13.9217C12.6273 13.9217 13.1658 13.6925 13.6007 13.2549C14.0356 12.7965 14.2634 12.2755 14.2634 11.6296ZM13.0435 12.6719C13.3335 12.3801 13.4784 12.0259 13.4784 11.63C13.4784 11.2341 13.3335 10.859 13.0435 10.5672C12.7536 10.2755 12.4015 10.1296 11.9873 10.1296C11.573 10.1296 11.221 10.2755 10.931 10.5672C10.6411 10.859 10.4961 11.2132 10.4961 11.63C10.4961 12.0467 10.6411 12.401 10.931 12.6719C11.221 12.9636 11.573 13.1095 11.9873 13.1095C12.4015 13.1095 12.7536 12.9636 13.0435 12.6719ZM14.9051 9.23372C14.9051 9.08784 14.843 8.96281 14.7394 8.85861C14.6359 8.75441 14.5116 8.69189 14.3666 8.69189C14.2216 8.69189 14.0974 8.75441 13.9938 8.85861C13.8903 8.96281 13.8281 9.08784 13.8281 9.23372C13.8281 9.37959 13.8903 9.50463 13.9938 9.60883C14.0974 9.71302 14.2216 9.77554 14.3666 9.77554C14.5116 9.77554 14.6359 9.71302 14.7394 9.60883C14.843 9.50463 14.9051 9.37959 14.9051 9.23372Z" fill="white"/>
<circle cx="11.7563" cy="11.3513" r="10.5499" stroke="#A6A6A6" stroke-width="0.639388"/>
</svg>
