<svg width="23" height="23" viewBox="0 0 23 23" fill="none" xmlns="http://www.w3.org/2000/svg">
<path fill-rule="evenodd" clip-rule="evenodd" d="M15.8097 8.49C16.2368 8.60017 16.5736 8.92281 16.6886 9.33201C16.9022 10.0796 16.894 11.6377 16.894 11.6377C16.894 11.6377 16.894 13.188 16.6886 13.9355C16.5736 14.3447 16.2368 14.6674 15.8097 14.7776C15.0293 14.9743 11.9079 14.9743 11.9079 14.9743C11.9079 14.9743 8.79472 14.9743 8.00616 14.7697C7.57902 14.6595 7.24223 14.3369 7.12723 13.9277C6.92188 13.188 6.92188 11.6298 6.92188 11.6298C6.92188 11.6298 6.92188 10.0796 7.12723 9.33201C7.24223 8.92281 7.58723 8.5923 8.00616 8.48213C8.78651 8.2854 11.9079 8.2854 11.9079 8.2854C11.9079 8.2854 15.0293 8.2854 15.8097 8.49ZM13.4774 11.6308L10.8945 13.0631V10.1985L13.4774 11.6308Z" fill="white"/>
<circle cx="11.6587" cy="11.3513" r="10.5499" stroke="#A6A6A6" stroke-width="0.639388"/>
</svg>
