<svg width="23" height="23" viewBox="0 0 23 23" fill="none" xmlns="http://www.w3.org/2000/svg">
<path fill-rule="evenodd" clip-rule="evenodd" d="M16.4582 8.16061C16.1148 8.32856 15.745 8.4419 15.3573 8.49305C15.7527 8.2318 16.057 7.8185 16.2002 7.32502C15.8298 7.56692 15.4196 7.74247 14.9825 7.83716C14.6333 7.42731 14.1345 7.1709 13.5831 7.1709C12.5246 7.1709 11.6657 8.11569 11.6657 9.28164C11.6657 9.44751 11.683 9.60855 11.7158 9.76267C10.1226 9.67421 8.70971 8.83447 7.76418 7.55725C7.59921 7.86895 7.5042 8.2318 7.5042 8.61814C7.5042 9.35075 7.84313 9.99697 8.3573 10.375C8.04277 10.3647 7.74749 10.2693 7.4888 10.1117C7.4888 10.12 7.4888 10.129 7.4888 10.138C7.4888 11.1602 8.14932 12.0137 9.02681 12.2079C8.8657 12.2556 8.69623 12.2819 8.52163 12.2819C8.39774 12.2819 8.27771 12.2687 8.16088 12.2439C8.4048 13.0822 9.11283 13.6925 9.95181 13.7098C9.29578 14.2758 8.469 14.6131 7.57096 14.6131C7.41626 14.6131 7.26349 14.6027 7.11328 14.5834C7.96189 15.1826 8.96968 15.5323 10.0526 15.5323C13.5786 15.5323 15.5069 12.3157 15.5069 9.5263C15.5069 9.43507 15.5056 9.34384 15.5018 9.2533C15.876 8.95611 16.2014 8.58428 16.4582 8.16061Z" fill="white"/>
<circle cx="11.8501" cy="11.3513" r="10.5499" stroke="#A6A6A6" stroke-width="0.639388"/>
</svg>
