<svg width="23" height="23" viewBox="0 0 23 23" fill="none" xmlns="http://www.w3.org/2000/svg">
<path fill-rule="evenodd" clip-rule="evenodd" d="M14.4005 11.576C14.4005 11.576 15.6691 9.80663 15.7952 9.22514C15.8372 9.01748 15.7448 8.90112 15.5263 8.90112H14.4257C14.1737 8.90112 14.0812 9.00915 14.0057 9.167C14.0057 9.167 13.4106 10.4206 12.6866 11.2105C12.4542 11.4659 12.336 11.5428 12.2077 11.5428C12.1043 11.5428 12.0565 11.4575 12.0565 11.2271V9.20852C12.0565 8.9261 12.0229 8.84302 11.7877 8.84302H10.0234C9.88892 8.84302 9.80493 8.9203 9.80493 9.02577C9.80493 9.29175 10.2166 9.35178 10.2166 10.0725V11.5594C10.2166 11.8585 10.1998 11.9747 10.0569 11.9747C9.6789 11.9747 8.77994 10.6872 8.27587 9.22514C8.17503 8.9261 8.06581 8.84302 7.78018 8.84302H6.67959C6.51999 8.84302 6.40234 8.95098 6.40234 9.10882C6.40234 9.39956 6.74678 10.7453 8.09946 12.5479C9.0068 13.7608 10.1998 14.417 11.2752 14.417C11.9305 14.417 12.0901 14.3091 12.0901 14.0349V13.1045C12.0901 12.8719 12.1826 12.7722 12.3169 12.7722C12.4682 12.7722 12.7351 12.8203 13.3587 13.4285C14.0981 14.1263 14.1485 14.417 14.5518 14.417H15.7868C15.9128 14.417 16.0304 14.3589 16.0304 14.1512C16.0304 13.877 15.6691 13.387 15.1147 12.8055C14.8878 12.5064 14.5181 12.1824 14.4005 12.0329C14.2325 11.8585 14.2829 11.7588 14.4005 11.576Z" fill="white"/>
<circle cx="11.1391" cy="11.3513" r="10.5499" stroke="#A6A6A6" stroke-width="0.639388"/>
</svg>
