<svg width="22" height="23" viewBox="0 0 22 23" fill="none" xmlns="http://www.w3.org/2000/svg">
<path fill-rule="evenodd" clip-rule="evenodd" d="M11.0363 6.05542C9.50822 6.05542 8.26953 7.28421 8.26953 8.79996C8.26953 10.3157 9.50822 11.5446 11.0363 11.5446C12.5643 11.5446 13.803 10.3157 13.803 8.79996C13.803 7.28421 12.5643 6.05542 11.0363 6.05542ZM11.0382 9.93375C10.4066 9.93375 9.89453 9.42579 9.89453 8.79925C9.89453 8.17272 10.4066 7.66479 11.0382 7.66479C11.6699 7.66479 12.1819 8.17272 12.1819 8.79925C12.1819 9.42579 11.6699 9.93375 11.0382 9.93375ZM13.8211 12.9563C13.786 12.9843 13.1222 13.5046 12.0146 13.7284L13.6865 15.372C13.9806 15.6632 13.9809 16.1357 13.6874 16.4273C13.3938 16.7189 12.9176 16.7194 12.6235 16.4281L11.0003 14.8602L9.52603 16.418C9.37843 16.5699 9.18153 16.6463 8.98443 16.6463C8.79644 16.6463 8.60829 16.5769 8.46231 16.4373C8.16322 16.1512 8.15455 15.6788 8.44295 15.3822L10.0299 13.7371C8.89123 13.5185 8.20008 12.9847 8.16449 12.9563C7.84037 12.6985 7.78831 12.2289 8.04824 11.9073C8.30813 11.5858 8.78155 11.5342 9.10575 11.792C9.1126 11.7975 9.8355 12.3362 11.0003 12.3369C12.1651 12.3362 12.873 11.7975 12.8799 11.792C13.204 11.5342 13.6775 11.5858 13.9374 11.9073C14.1973 12.2289 14.1452 12.6985 13.8211 12.9563Z" fill="white"/>
<circle cx="10.9477" cy="11.3513" r="10.5499" stroke="#A6A6A6" stroke-width="0.639388"/>
</svg>
