<svg width="66" height="66" viewBox="0 0 66 66" fill="none" xmlns="http://www.w3.org/2000/svg">
<path fill-rule="evenodd" clip-rule="evenodd" d="M33.0399 17.2632C28.4329 17.2632 24.6982 20.968 24.6982 25.5379C24.6982 30.108 28.4329 33.8131 33.0399 33.8131C37.647 33.8131 41.3816 30.108 41.3816 25.5379C41.3816 20.968 37.647 17.2632 33.0399 17.2632ZM33.0384 28.9563C31.134 28.9563 29.5901 27.4248 29.5901 25.5358C29.5901 23.6468 31.134 22.1154 33.0384 22.1154C34.9428 22.1154 36.4867 23.6468 36.4867 25.5358C36.4867 27.4248 34.9428 28.9563 33.0384 28.9563ZM41.4299 38.0715C41.324 38.1557 39.3228 39.7244 35.9833 40.3992L41.0241 45.3548C41.9106 46.2327 41.9117 47.6572 41.0266 48.5365C40.1416 49.4157 38.7057 49.4171 37.819 48.539L32.9251 43.8118L28.4802 48.5085C28.0352 48.9664 27.4416 49.1967 26.8473 49.1967C26.2805 49.1967 25.7133 48.9875 25.2731 48.5666C24.3714 47.7041 24.3452 46.2798 25.2147 45.3854L29.9994 40.4254C26.5663 39.7665 24.4825 38.1569 24.3752 38.0715C23.398 37.2942 23.241 35.8782 24.0247 34.9088C24.8083 33.9395 26.2356 33.7838 27.2131 34.5611C27.2337 34.5776 29.4133 36.2017 32.925 36.2041C36.4369 36.2017 38.5713 34.5776 38.592 34.5611C39.5694 33.7838 40.9968 33.9395 41.7803 34.9088C42.564 35.8782 42.4071 37.2942 41.4299 38.0715Z" fill="#141D3A"/>
<path d="M65.0231 33.2283C65.0231 51.0402 50.5837 65.4797 32.7717 65.4797C14.9597 65.4797 0.520297 51.0402 0.520297 33.2283C0.520297 15.4163 14.9597 0.97684 32.7717 0.97684C50.5837 0.97684 65.0231 15.4163 65.0231 33.2283Z" stroke="#141D3A" stroke-width="1.04059"/>
</svg>
