<svg width="66" height="66" viewBox="0 0 66 66" fill="none" xmlns="http://www.w3.org/2000/svg">
<path fill-rule="evenodd" clip-rule="evenodd" d="M42.5965 33.4483C42.5965 33.4483 46.4212 28.1137 46.8014 26.3605C46.9279 25.7344 46.6493 25.3836 45.9907 25.3836H42.6725C41.9126 25.3836 41.6338 25.7093 41.406 26.1852C41.406 26.1852 39.6118 29.9647 37.4291 32.3464C36.7283 33.1165 36.372 33.3482 35.9852 33.3482C35.6733 33.3482 35.5293 33.091 35.5293 32.3964V26.3104C35.5293 25.4589 35.428 25.2084 34.7188 25.2084H29.3994C28.994 25.2084 28.7408 25.4414 28.7408 25.7594C28.7408 26.5613 29.9819 26.7423 29.9819 28.9151V33.3982C29.9819 34.2999 29.9313 34.6505 29.5006 34.6505C28.3608 34.6505 25.6505 30.7685 24.1307 26.3605C23.8267 25.4589 23.4974 25.2084 22.6362 25.2084H19.3179C18.8367 25.2084 18.482 25.5339 18.482 26.0098C18.482 26.8864 19.5205 30.9437 23.5988 36.3787C26.3345 40.0354 29.9313 42.0139 33.1736 42.0139C35.1493 42.0139 35.6306 41.6884 35.6306 40.8618V38.0567C35.6306 37.3554 35.9093 37.0549 36.3145 37.0549C36.7704 37.0549 37.5751 37.1997 39.4555 39.0335C41.6845 41.1373 41.8366 42.0139 43.0525 42.0139H46.776C47.1559 42.0139 47.5106 41.8386 47.5106 41.2124C47.5106 40.3858 46.4212 38.9084 44.7495 37.1551C44.0656 36.2535 42.951 35.2767 42.5965 34.8259C42.0899 34.2999 42.2419 33.9993 42.5965 33.4483Z" fill="#141D3A"/>
<path d="M65.0231 32.7717C65.0231 50.5837 50.5837 65.0231 32.7717 65.0231C14.9597 65.0231 0.520297 50.5837 0.520297 32.7717C0.520297 14.9597 14.9597 0.520297 32.7717 0.520297C50.5837 0.520297 65.0231 14.9597 65.0231 32.7717Z" stroke="#141D3A" stroke-width="1.04059"/>
</svg>
