<svg width="66" height="66" viewBox="0 0 66 66" fill="none" xmlns="http://www.w3.org/2000/svg">
<path fill-rule="evenodd" clip-rule="evenodd" d="M25.8669 40.3836C26.4896 40.7127 27.1831 40.8845 27.8872 40.8842C30.2323 40.8842 32.1468 39.0161 32.2332 36.6877L32.2418 15.8956H37.4219C37.4224 16.3372 37.4634 16.7779 37.5444 17.212H33.7515V17.2127H37.5444H38.9323C38.9316 18.9529 39.5614 20.6342 40.7049 21.9444C40.7053 21.945 40.7058 21.9455 40.7063 21.9461C41.8728 22.7092 43.2362 23.1149 44.6295 23.1136V24.269C45.1171 24.3736 45.6213 24.4293 46.1399 24.4293V29.6183C43.5537 29.6213 41.0321 28.8092 38.9323 27.2972V37.8404C38.9323 43.1051 34.6547 47.3889 29.3969 47.3889C28.0875 47.3892 26.7922 47.1187 25.5921 46.5943C24.3928 46.0703 23.3145 45.304 22.4246 44.3435C22.4239 44.343 22.4233 44.3426 22.4226 44.3421C19.9637 42.6132 18.3517 39.754 18.3517 36.524C18.3517 31.2585 22.6293 26.974 27.8872 26.974C28.3171 26.9761 28.7464 27.0074 29.1721 27.0678V28.2962C29.1721 28.2962 29.1721 28.2962 29.1721 28.2962L29.1721 32.3643C29.1721 32.3643 29.1721 32.3643 29.1721 32.3643L29.1721 28.2962C29.2021 28.2956 29.2319 28.2945 29.2617 28.2935C29.3065 28.2919 29.3514 28.2904 29.3969 28.2904C29.8268 28.2924 30.2561 28.3238 30.6818 28.3842V33.6806C30.2756 33.553 29.8456 33.4787 29.3969 33.4787C28.2422 33.48 27.1353 33.94 26.3189 34.7577C25.5025 35.5754 25.0433 36.684 25.0422 37.8403C25.0422 38.7537 25.3305 39.6436 25.8657 40.383C25.8661 40.3832 25.8665 40.3834 25.8669 40.3836ZM31.4269 41.6968C32.7604 40.9883 33.6837 39.6046 33.7436 38.0034V38.0041C33.6837 39.6048 32.7604 40.9884 31.4269 41.6968ZM27.8876 32.1623C28.1542 32.1623 28.4144 32.1884 28.6672 32.2366C28.4105 32.1881 28.1495 32.1632 27.8876 32.1623ZM24.8095 33.4411C24.8094 33.4411 24.8095 33.4411 24.8095 33.4411V33.4411ZM20.4904 41.2475C20.9329 42.4022 21.5934 43.4496 22.4205 44.3399C21.5765 43.4354 20.9248 42.3834 20.4904 41.2475ZM27.8872 46.0725C27.8872 46.0725 27.8872 46.0725 27.8872 46.0725V46.0725ZM37.4219 36.5233V25.9801C37.4219 25.9801 37.4219 25.9801 37.4219 25.9801V36.5233Z" fill="#141D3A"/>
<path d="M65.0231 33.2283C65.0231 51.0402 50.5837 65.4797 32.7717 65.4797C14.9597 65.4797 0.520297 51.0402 0.520297 33.2283C0.520297 15.4163 14.9597 0.97684 32.7717 0.97684C50.5837 0.97684 65.0231 15.4163 65.0231 33.2283Z" stroke="#141D3A" stroke-width="1.04059"/>
</svg>
