<svg width="36" height="44" viewBox="0 0 36 44" fill="none" xmlns="http://www.w3.org/2000/svg">
<path d="M29.4061 2.62325V5.63888L22.1244 3.94589V0.947896L17.9979 0L13.8756 0.947896V3.94589L6.624 5.63888V2.62325L0 4.14429V20.0425C0 32.1094 7.43212 39.6353 17.9979 44C28.5679 39.6309 36 32.0962 36 20.0425V4.14429L29.4061 2.62325ZM31.0567 20.0425C31.0481 29.0541 25.9888 34.3447 17.9979 38.4361C10.0112 34.3447 4.95188 29.0541 4.95188 20.0425V11.2248L17.9979 8.19158L31.0481 11.2248L31.0567 20.0425ZM12.513 18.7816L9.01397 22.3703L16.8673 30.4253L29.0407 17.9351L25.5374 14.3463L16.8673 23.2433L12.513 18.7816Z" fill="#141D3A"/>
</svg>
