<svg width="44" height="31" viewBox="0 0 44 31" fill="none" xmlns="http://www.w3.org/2000/svg">
<path d="M42.3016 0H6.7672C6.31828 0.00118137 5.88808 0.183087 5.57064 0.50595C5.25321 0.828814 5.07436 1.26637 5.0732 1.72297V5.17338H2.5388C1.86583 5.17456 1.22075 5.447 0.744883 5.931C0.269018 6.415 0.00116331 7.07111 0 7.75559V28.4178C0.00116331 29.1023 0.269018 29.7584 0.744883 30.2424C1.22075 30.7264 1.86583 30.9988 2.5388 31H36.3924C37.0654 30.9988 37.7104 30.7264 38.1863 30.2424C38.6622 29.7584 38.93 29.1023 38.9312 28.4178V24.0992H42.3104C42.7582 24.098 43.1872 23.9166 43.5038 23.5945C43.8205 23.2725 43.9988 22.8361 44 22.3807V1.72297C43.9988 1.2656 43.8194 0.827364 43.501 0.504373C43.1826 0.181382 42.7513 -1.53484e-06 42.3016 0ZM37.2284 28.4178C37.2284 28.6457 37.1394 28.8642 36.981 29.0254C36.8225 29.1865 36.6077 29.277 36.3836 29.277H2.53C2.30595 29.277 2.09107 29.1865 1.93264 29.0254C1.77421 28.8642 1.6852 28.6457 1.6852 28.4178V16.9612H37.2284V28.4178ZM37.2284 12.0608H1.6852V7.75559C1.6852 7.52771 1.77421 7.30915 1.93264 7.14801C2.09107 6.98687 2.30595 6.89635 2.53 6.89635H36.3836C36.6077 6.89635 36.8225 6.98687 36.981 7.14801C37.1394 7.30915 37.2284 7.52771 37.2284 7.75559V12.0608Z" fill="#141D3A"/>
</svg>
