<svg width="44" height="45" viewBox="0 0 44 45" fill="none" xmlns="http://www.w3.org/2000/svg">
<path d="M42.7233 34.7687C41.7878 29.8352 39.2246 25.358 35.4437 22.0536C35.0378 17.8049 34.0054 15.7004 32.4789 12.4974C30.8332 9.087 28.6273 6.3781 25.7684 4.96629C25.1902 4.68419 24.5839 4.46385 23.9595 4.30892V1L19.7594 1.03088V4.34863C18.3133 4.74802 16.9748 5.46552 15.8416 6.44869C14.0376 8.05308 12.5851 10.0133 11.5753 12.2062C9.97379 15.5063 8.92818 17.7873 8.55758 22.23C6.40039 24.1529 4.64204 26.4809 3.38242 29.0817C2.46568 30.9704 1.8125 32.9759 1.44119 35.0422L1 37.5261L15.1489 37.4334C15.2047 39.2485 15.9679 40.9698 17.2755 42.2298C18.5831 43.4898 20.3315 44.1887 22.1474 44.1772C23.9632 44.1657 25.7026 43.4447 26.9941 42.1682C28.2857 40.8917 29.0269 39.1608 29.0597 37.3452L43.2086 37.2481L42.7233 34.7687ZM6.20162 33.2907C6.46489 32.4795 6.7848 31.6878 7.15901 30.9215C8.28491 28.5879 9.90829 26.5293 11.915 24.8904L12.6474 24.308L12.7048 23.3815C12.9562 19.0667 13.9489 16.9578 15.3519 14.046C16.105 12.372 17.1936 10.8703 18.5505 9.63408C19.4689 8.78544 20.6626 8.29668 21.9124 8.25757C22.6191 8.25724 23.3159 8.4235 23.9463 8.74288L23.9904 8.76494C25.5875 9.55025 27.339 11.465 28.6891 14.3107C30.0391 17.1564 31.0318 19.1241 31.3362 23.2624L31.4024 24.1845L32.1259 24.7581C34.8243 26.9164 36.8433 29.8069 37.9408 33.0833L6.20162 33.2907Z" fill="#141D3A" stroke="#141D3A" stroke-width="1.3" stroke-miterlimit="10"/>
</svg>
