<svg width="46" height="45" viewBox="0 0 46 45" fill="none" xmlns="http://www.w3.org/2000/svg">
<rect x="0.820374" y="0.381592" width="44.2369" height="44.2369" rx="6.31956" fill="white" fill-opacity="0.6"/>
<path fill-rule="evenodd" clip-rule="evenodd" d="M28.9523 9.229C29.1418 10.8749 28.6563 11.8304 27.7087 13.0169L27.6824 13.0482C26.7015 14.2166 25.4931 15.656 23.9778 15.5422C23.7756 13.9601 24.3496 11.5123 25.2214 10.4916C26.1844 9.35717 27.5247 9.29512 28.8586 9.23336C28.8898 9.23191 28.9211 9.23046 28.9523 9.229ZM33.1033 18.0969C32.968 18.1735 30.6448 19.6384 30.6817 23.1461C30.7186 27.3553 34.2526 28.1825 34.3141 28.1952C34.2895 28.2845 33.2088 30.0433 31.8925 31.9821C31.669 32.331 31.4618 32.6942 31.2579 33.0515C30.463 34.4446 29.719 35.7487 28.2601 35.769C27.3878 35.7877 26.6987 35.4862 25.9834 35.1732C25.2362 34.8462 24.4604 34.5067 23.417 34.5067C22.3136 34.5067 21.4916 34.8487 20.7022 35.1773C20.0217 35.4604 19.3654 35.7335 18.5739 35.769C17.2224 35.8282 16.4727 34.5445 15.6728 33.1748C15.4388 32.7741 15.2005 32.366 14.9415 31.9821C12.6657 28.5254 10.1458 22.3699 12.52 18.0969C13.664 16.0051 16.3227 15.6106 18.5739 15.5724C19.5658 15.5506 20.6478 15.9606 21.5936 16.319C22.3135 16.5918 22.9545 16.8347 23.417 16.8347C23.8235 16.8347 24.3334 16.6093 24.9264 16.3472C25.859 15.935 26.9968 15.432 28.2601 15.5724C29.1213 15.5979 31.5164 15.699 33.1033 18.0969Z" fill="#141D3A"/>
</svg>
