<svg width="24" height="27" viewBox="0 0 24 27" fill="none" xmlns="http://www.w3.org/2000/svg">
<path fill-rule="evenodd" clip-rule="evenodd" d="M17.9523 0.229004C18.1418 1.87489 17.6563 2.83036 16.7087 4.01693L16.6824 4.04823C15.7015 5.21663 14.4931 6.65602 12.9778 6.54221C12.7756 4.96012 13.3496 2.51235 14.2214 1.49165C15.1844 0.35717 16.5247 0.295116 17.8586 0.233357C17.8898 0.23191 17.9211 0.230464 17.9523 0.229004ZM22.1033 9.09695C21.968 9.17348 19.6448 10.6384 19.6817 14.1461C19.7186 18.3553 23.2526 19.1825 23.3141 19.1952C23.2895 19.2845 22.2088 21.0433 20.8925 22.9821C20.669 23.331 20.4618 23.6942 20.2579 24.0515C19.463 25.4446 18.719 26.7487 17.2601 26.769C16.3878 26.7877 15.6987 26.4862 14.9834 26.1732C14.2362 25.8462 13.4604 25.5067 12.417 25.5067C11.3136 25.5067 10.4916 25.8487 9.70216 26.1773C9.02173 26.4604 8.36543 26.7335 7.57389 26.769C6.2224 26.8282 5.47271 25.5445 4.67278 24.1748C4.43877 23.7741 4.20047 23.366 3.94154 22.9821C1.66573 19.5254 -0.854248 13.3699 1.51998 9.09695C2.66403 7.0051 5.32268 6.61064 7.57389 6.57237C8.56582 6.55065 9.64778 6.96061 10.5936 7.31901C11.3135 7.59177 11.9545 7.83466 12.417 7.83466C12.8235 7.83466 13.3334 7.60925 13.9264 7.34715C14.859 6.93496 15.9968 6.43202 17.2601 6.57237C18.1213 6.59788 20.5164 6.69897 22.1033 9.09695Z" fill="#141D3A"/>
</svg>
