<svg width="46" height="45" viewBox="0 0 46 45" fill="none" xmlns="http://www.w3.org/2000/svg">
<rect x="0.960266" y="0.381592" width="44.2369" height="44.2369" rx="6.31956" fill="white" fill-opacity="0.6"/>
<path fill-rule="evenodd" clip-rule="evenodd" d="M11.2064 8.54049C11.0032 8.87819 10.888 9.32518 10.888 9.8666V35.1326C10.888 35.6758 11.0036 36.1229 11.2074 36.4605L25.1667 22.5L11.2064 8.54049ZM11.686 36.9617C12.2154 37.3015 12.9641 37.2775 13.7911 36.8086L30.1692 27.5022L25.6566 22.9899L11.686 36.9617ZM30.7947 27.1479L36.0709 24.1504C37.6669 23.2422 37.6669 21.7582 36.0709 20.8511L30.7935 17.8525L26.1465 22.4999L30.7947 27.1479ZM30.1687 17.4975L13.7911 8.1918C12.9636 7.7216 12.2144 7.69856 11.685 8.03925L25.6566 22.01L30.1687 17.4975Z" fill="#141D3A"/>
</svg>
