<svg width="45" height="45" viewBox="0 0 45 45" fill="none" xmlns="http://www.w3.org/2000/svg">
<rect x="0.100189" y="0.381592" width="44.2369" height="44.2369" rx="6.31956" fill="white" fill-opacity="0.6"/>
<g clip-path="url(#clip0_188_4793)">
<path d="M35.8283 13.6522C35.9052 13.6518 35.9791 13.6815 36.034 13.735C36.0889 13.7885 36.1204 13.8615 36.1216 13.938V31.0622C36.1199 31.1384 36.0882 31.2108 36.0334 31.264C35.9785 31.3171 35.9049 31.3466 35.8283 31.3461H32.0617C31.9852 31.3468 31.9114 31.3174 31.8565 31.2642C31.8015 31.2111 31.7699 31.1384 31.7685 31.0622V13.938C31.7689 13.9 31.7767 13.8625 31.7917 13.8276C31.8066 13.7927 31.8283 13.761 31.8556 13.7345C31.8828 13.7079 31.915 13.687 31.9504 13.6729C31.9858 13.6588 32.0236 13.6518 32.0617 13.6522H35.8283ZM19.481 13.6522C22.3225 13.6522 25.2911 13.7815 26.7591 15.2419C28.1998 16.6796 28.356 19.5415 28.3623 22.321V31.0622C28.3609 31.1383 28.3294 31.2108 28.2747 31.2639C28.22 31.3171 28.1464 31.3466 28.07 31.3461H24.3034C24.2268 31.3468 24.153 31.3174 24.0981 31.2642C24.0432 31.2111 24.0116 31.1384 24.0102 31.0622V22.1709C24.0102 20.6184 23.9194 19.0233 23.1132 18.2204C22.4214 17.5287 21.1305 17.3704 19.7878 17.3379H12.96C12.8837 17.3374 12.8102 17.3669 12.7556 17.4201C12.7011 17.4733 12.6698 17.5458 12.6686 17.6218V31.0622C12.6672 31.1384 12.6355 31.2111 12.5806 31.2642C12.5257 31.3174 12.4519 31.3468 12.3754 31.3461H8.60603C8.52977 31.3466 8.45642 31.317 8.402 31.2638C8.34757 31.2106 8.31648 31.1381 8.31552 31.0622V13.938C8.31576 13.9002 8.32346 13.8629 8.33819 13.8281C8.35292 13.7933 8.37438 13.7617 8.40136 13.7352C8.42834 13.7087 8.46029 13.6877 8.49541 13.6734C8.53053 13.6592 8.56812 13.652 8.60603 13.6522H19.481ZM20.3234 20.4692C20.3998 20.4687 20.4733 20.4984 20.5278 20.5518C20.5822 20.6052 20.6132 20.6779 20.6139 20.754V31.0622C20.613 31.1381 20.5819 31.2106 20.5275 31.2638C20.473 31.317 20.3997 31.3466 20.3234 31.3461H16.3671C16.2904 31.3471 16.2165 31.3177 16.1616 31.2645C16.1066 31.2113 16.0751 31.1385 16.0739 31.0622V20.754C16.0743 20.7161 16.0823 20.6787 16.0973 20.6439C16.1123 20.6091 16.134 20.5776 16.1613 20.5511C16.1885 20.5247 16.2207 20.5038 16.256 20.4898C16.2913 20.4757 16.3291 20.4687 16.3671 20.4692H20.3234Z" fill="#141D3A"/>
</g>
<defs>
<clipPath id="clip0_188_4793">
<rect width="27.806" height="17.6948" fill="white" transform="translate(8.31552 13.6525)"/>
</clipPath>
</defs>
</svg>
