<svg width="45" height="45" viewBox="0 0 45 45" fill="none" xmlns="http://www.w3.org/2000/svg">
<rect x="0.240112" y="0.381592" width="44.2369" height="44.2369" rx="6.31956" fill="white" fill-opacity="0.6"/>
<path fill-rule="evenodd" clip-rule="evenodd" d="M19.4553 26.7708H21.282L20.3656 24.6395L19.4553 26.7708ZM19.0055 27.8449L18.4635 29.085H17.2296L19.8536 23.1321H20.92L23.5333 29.085H22.2665L21.7315 27.8449H19.0055ZM38.8607 29.0806H40.0532V23.1317H38.8607V29.0806ZM34.1142 26.5251H36.3124V25.4404H34.1142V24.2211H37.3053V23.1361H32.922V29.0846H37.4201V27.9996H34.1142V26.5251ZM29.3758 27.228L28.0238 23.1317H27.0371L25.6851 27.228L24.3693 23.135H23.0827L25.1592 29.0883H26.1594L27.5136 25.1778L28.8678 29.0883H29.8768L31.9478 23.135H30.6945L29.3758 27.228ZM15.4092 26.5415C15.4092 27.5099 14.9283 28.0274 14.055 28.0274C13.1769 28.0274 12.6935 27.4949 12.6935 26.5002V23.1357H11.4848V26.5415C11.4848 28.2168 12.4159 29.1775 14.0385 29.1775C15.6772 29.1775 16.6167 28.1985 16.6167 26.4918V23.1321H15.4092V26.5415ZM8.60123 23.1321H9.80915V29.0887H8.60123V26.6695H5.87235V29.0887H4.6637V23.1321H5.87235V25.5348H8.60123V23.1321Z" fill="#141D3A"/>
<path fill-rule="evenodd" clip-rule="evenodd" d="M22.3584 15.5481C18.1765 15.5481 14.775 12.1462 14.775 7.9646H15.8461C15.8461 11.5552 18.7678 14.4765 22.3584 14.4765C25.949 14.4765 28.8707 11.5552 28.8707 7.9646H29.9419C29.9419 12.1462 26.54 15.5481 22.3584 15.5481Z" fill="#141D3A"/>
</svg>
